<svg width="485" height="311" viewBox="0 0 485 311" fill="none" xmlns="http://www.w3.org/2000/svg">
<path d="M223.832 153.7C218.965 153.7 214.565 152.867 210.632 151.2C206.765 149.533 203.699 147.133 201.432 144C199.165 140.867 197.999 137.167 197.932 132.9H212.932C213.132 135.767 214.132 138.033 215.932 139.7C217.799 141.367 220.332 142.2 223.532 142.2C226.799 142.2 229.365 141.433 231.232 139.9C233.099 138.3 234.032 136.233 234.032 133.7C234.032 131.633 233.399 129.933 232.132 128.6C230.865 127.267 229.265 126.233 227.332 125.5C225.465 124.7 222.865 123.833 219.532 122.9C214.999 121.567 211.299 120.267 208.432 119C205.632 117.667 203.199 115.7 201.132 113.1C199.132 110.433 198.132 106.9 198.132 102.5C198.132 98.3667 199.165 94.7667 201.232 91.7C203.299 88.6333 206.199 86.3 209.932 84.7C213.665 83.0333 217.932 82.2 222.732 82.2C229.932 82.2 235.765 83.9667 240.232 87.5C244.765 90.9667 247.265 95.8333 247.732 102.1H232.332C232.199 99.7 231.165 97.7333 229.232 96.2C227.365 94.6 224.865 93.8 221.732 93.8C218.999 93.8 216.799 94.5 215.132 95.9C213.532 97.3 212.732 99.3333 212.732 102C212.732 103.867 213.332 105.433 214.532 106.7C215.799 107.9 217.332 108.9 219.132 109.7C220.999 110.433 223.599 111.3 226.932 112.3C231.465 113.633 235.165 114.967 238.032 116.3C240.899 117.633 243.365 119.633 245.432 122.3C247.499 124.967 248.532 128.467 248.532 132.8C248.532 136.533 247.565 140 245.632 143.2C243.699 146.4 240.865 148.967 237.132 150.9C233.399 152.767 228.965 153.7 223.832 153.7ZM303.17 83.2V94.5H284.57V153H270.57V94.5H251.97V83.2H303.17ZM340.784 153.7C334.251 153.7 328.251 152.167 322.784 149.1C317.318 146.033 312.984 141.8 309.784 136.4C306.584 130.933 304.984 124.767 304.984 117.9C304.984 111.1 306.584 105 309.784 99.6C312.984 94.1333 317.318 89.8667 322.784 86.8C328.251 83.7333 334.251 82.2 340.784 82.2C347.384 82.2 353.384 83.7333 358.784 86.8C364.251 89.8667 368.551 94.1333 371.684 99.6C374.884 105 376.484 111.1 376.484 117.9C376.484 124.767 374.884 130.933 371.684 136.4C368.551 141.8 364.251 146.033 358.784 149.1C353.318 152.167 347.318 153.7 340.784 153.7ZM340.784 141.2C344.984 141.2 348.684 140.267 351.884 138.4C355.084 136.467 357.584 133.733 359.384 130.2C361.184 126.667 362.084 122.567 362.084 117.9C362.084 113.233 361.184 109.167 359.384 105.7C357.584 102.167 355.084 99.4667 351.884 97.6C348.684 95.7333 344.984 94.8 340.784 94.8C336.584 94.8 332.851 95.7333 329.584 97.6C326.384 99.4667 323.884 102.167 322.084 105.7C320.284 109.167 319.384 113.233 319.384 117.9C319.384 122.567 320.284 126.667 322.084 130.2C323.884 133.733 326.384 136.467 329.584 138.4C332.851 140.267 336.584 141.2 340.784 141.2ZM55.025 158.2V169.5H36.425V228H22.425V169.5H3.825V158.2H55.025ZM118.14 158.2V228H104.14V198.3H74.2398V228H60.2398V158.2H74.2398V186.9H104.14V158.2H118.14ZM140.92 169.5V187H164.42V198.1H140.92V216.6H167.42V228H126.92V158.1H167.42V169.5H140.92ZM207.97 216.9H230.97V228H193.97V158.2H207.97V216.9ZM267.269 228.7C260.735 228.7 254.735 227.167 249.269 224.1C243.802 221.033 239.469 216.8 236.269 211.4C233.069 205.933 231.469 199.767 231.469 192.9C231.469 186.1 233.069 180 236.269 174.6C239.469 169.133 243.802 164.867 249.269 161.8C254.735 158.733 260.735 157.2 267.269 157.2C273.869 157.2 279.869 158.733 285.269 161.8C290.735 164.867 295.035 169.133 298.169 174.6C301.369 180 302.969 186.1 302.969 192.9C302.969 199.767 301.369 205.933 298.169 211.4C295.035 216.8 290.735 221.033 285.269 224.1C279.802 227.167 273.802 228.7 267.269 228.7ZM267.269 216.2C271.469 216.2 275.169 215.267 278.369 213.4C281.569 211.467 284.069 208.733 285.869 205.2C287.669 201.667 288.569 197.567 288.569 192.9C288.569 188.233 287.669 184.167 285.869 180.7C284.069 177.167 281.569 174.467 278.369 172.6C275.169 170.733 271.469 169.8 267.269 169.8C263.069 169.8 259.335 170.733 256.069 172.6C252.869 174.467 250.369 177.167 248.569 180.7C246.769 184.167 245.869 188.233 245.869 192.9C245.869 197.567 246.769 201.667 248.569 205.2C250.369 208.733 252.869 211.467 256.069 213.4C259.335 215.267 263.069 216.2 267.269 216.2ZM340.784 228.7C334.251 228.7 328.251 227.167 322.784 224.1C317.318 221.033 312.984 216.8 309.784 211.4C306.584 205.933 304.984 199.767 304.984 192.9C304.984 186.1 306.584 180 309.784 174.6C312.984 169.133 317.318 164.867 322.784 161.8C328.251 158.733 334.251 157.2 340.784 157.2C347.384 157.2 353.384 158.733 358.784 161.8C364.251 164.867 368.551 169.133 371.684 174.6C374.884 180 376.484 186.1 376.484 192.9C376.484 199.767 374.884 205.933 371.684 211.4C368.551 216.8 364.251 221.033 358.784 224.1C353.318 227.167 347.318 228.7 340.784 228.7ZM340.784 216.2C344.984 216.2 348.684 215.267 351.884 213.4C355.084 211.467 357.584 208.733 359.384 205.2C361.184 201.667 362.084 197.567 362.084 192.9C362.084 188.233 361.184 184.167 359.384 180.7C357.584 177.167 355.084 174.467 351.884 172.6C348.684 170.733 344.984 169.8 340.784 169.8C336.584 169.8 332.851 170.733 329.584 172.6C326.384 174.467 323.884 177.167 322.084 180.7C320.284 184.167 319.384 188.233 319.384 192.9C319.384 197.567 320.284 201.667 322.084 205.2C323.884 208.733 326.384 211.467 329.584 213.4C332.851 215.267 336.584 216.2 340.784 216.2Z" fill="black"/>
<path d="M476.673 125.702C476.673 137.737 472.523 147.767 464.223 155.79C456.061 163.675 443.542 167.617 426.665 167.617H398.86V228H379.978V83.3725H426.665C442.988 83.3725 455.369 87.315 463.808 95.2C472.384 103.085 476.673 113.252 476.673 125.702ZM426.665 152.055C437.178 152.055 444.925 149.772 449.905 145.207C454.885 140.642 457.375 134.141 457.375 125.702C457.375 107.857 447.138 98.935 426.665 98.935H398.86V152.055H426.665Z" fill="black"/>
</svg>
